<svg xmlns="http://www.w3.org/2000/svg" xmlns:xlink="http://www.w3.org/1999/xlink" xmlns:fi="http://pattern.flaticon.com/" x="0" y="0" width="700" height="350" viewBox="0 0 700 350"><rect x="0px" y="0px" width="100%" height="100%" opacity="1" fill="#ffffff"/><defs><g transform="matrix(0.11724291741847992 0 0 0.11724291741847992 215 180.00000045798015)" id="L1_44"><path d="M159.805,191.603l192.336,192.336l143.246-143.246c21.828-21.836,21.828-57.367,0-79.195    L382.246,48.357c-21.82-21.82-57.359-21.836-79.195,0L159.805,191.603z" fill="#4bb9ec"/><path d="M16.371,335.037c-21.828,21.836-21.828,57.367,0,79.195l63.195,63.195    c1.5,1.5,3.531,2.344,5.656,2.344h167.773c2.125,0,4.156-0.844,5.656-2.344l93.489-93.489L159.805,191.603L16.371,335.037z" fill="#ff4f19"/><path d="M463.973,479.771h-24c-4.422,0-8-3.578-8-8s3.578-8,8-8h24c4.422,0,8,3.578,8,8     S468.394,479.771,463.973,479.771z" fill="#e3001e"/><path d="M335.98,447.771c-2.938,0-5.758-1.617-7.164-4.422c-1.977-3.953-0.375-8.758,3.578-10.734l16-8     c3.953-1.969,8.75-0.375,10.734,3.578c1.977,3.953,0.375,8.758-3.578,10.734l-16,8     C338.402,447.498,337.183,447.771,335.98,447.771z" fill="#ff4f19"/><path d="M391.973,447.771h-8c-4.422,0-8-3.578-8-8s3.578-8,8-8h8c4.422,0,8,3.578,8,8     S396.394,447.771,391.973,447.771z" fill="#ff4f19"/><path d="M367.973,415.771c-2.047,0-4.094-0.781-5.656-2.344c-3.125-3.125-3.125-8.188,0-11.313l8-8     c3.125-3.125,8.188-3.125,11.313,0s3.125,8.187,0,11.312l-8,8C372.066,414.99,370.019,415.771,367.973,415.771z" fill="#ff4f19"/><path d="M407.996,423.771c-2.164,0-4.242-0.883-5.688-2.32c-1.516-1.523-2.312-3.602-2.312-5.68     s0.797-4.164,2.234-5.602c3.125-3.039,8.398-3.039,11.359-0.078c1.523,1.516,2.406,3.602,2.406,5.68s-0.883,4.156-2.406,5.68     C412.152,422.889,410.074,423.771,407.996,423.771z" fill="#ff4f19"/><path d="M407.996,383.771c-2.164,0-4.242-0.883-5.688-2.32c-1.516-1.523-2.312-3.602-2.312-5.68     s0.797-4.164,2.234-5.602c3.125-3.039,8.398-3.039,11.359-0.078c1.523,1.516,2.406,3.602,2.406,5.68s-0.883,4.156-2.406,5.68     C412.152,382.889,410.074,383.771,407.996,383.771z" fill="#ff4f19"/><path d="M407.973,463.771H65.91l13.656,13.656c1.5,1.5,3.531,2.344,5.656,2.344h322.75c4.422,0,8-3.578,8-8    S412.394,463.771,407.973,463.771z" fill="#e3001e"/></g><g transform="matrix(0.1171875 0 0 0.1171875 32 112)" id="L1_45"><path d="M280.041,376c-18.068,0-62.013,0-80.082,0c-4.418,0-7.959,3.582-7.959,8l0,0c0,49,48,104,48,104    s48-55,48-104l0,0C288,379.582,284.46,376,280.041,376z" fill="#b4b6bc"/><path d="M200,280h80c4.418,0,8-3.582,8-8V56c0-4.418-3.582-8-8-8h-40h-40c-4.418,0-8,3.582-8,8v216    C192,276.418,195.582,280,200,280z" fill="#b4b6bc"/><path d="M272,48V16c0-8.837-7.163-16-16-16h-32c-8.837,0-16,7.163-16,16v32H272z" fill="#009bca"/><path d="M272,344c8.837,0,16,7.163,16,16s-7.163,16-16,16h-64c-8.837,0-16-7.163-16-16s7.163-16,16-16H272z    " fill="#009bca"/><path d="M272,344h-32.219v32H272c8.836,0,16-7.164,16-16C288,351.163,280.837,344,272,344z" fill="#4bb9ec"/><path d="M272,312c8.837,0,16,7.163,16,16s-7.163,16-16,16h-64c-8.837,0-16-7.163-16-16s7.163-16,16-16H272z    " fill="#009bca"/><path d="M272,312h-32.219v32H272c8.836,0,16-7.164,16-16C288,319.163,280.837,312,272,312z" fill="#4bb9ec"/><path d="M272,280c8.837,0,16,7.163,16,16s-7.163,16-16,16h-64c-8.837,0-16-7.163-16-16s7.163-16,16-16H272z    " fill="#009bca"/><path d="M272,280h-32.219v32H272c8.836,0,16-7.164,16-16C288,287.163,280.837,280,272,280z" fill="#4bb9ec"/><path d="M239.781,376c-15.43,0-30.83,0-39.822,0c-4.418,0-7.959,3.582-7.959,8l0,0    c0,47.754,45.463,101.057,47.781,103.744V376z" fill="#868491"/><path d="M239.781,48H200c-4.418,0-8,3.582-8,8v216c0,4.418,3.582,8,8,8h39.781V48z" fill="#868491"/><path d="M320,248c-4.422,0-8-3.582-8-8V96c0-4.41-3.586-8-8-8H192c-4.422,0-8-3.582-8-8s3.578-8,8-8h112     c13.234,0,24,10.766,24,24v144C328,244.418,324.422,248,320,248z" fill="#5c546a"/><path d="M256,0h-16.219v48H272V16C272,7.163,264.837,0,256,0z" fill="#4bb9ec"/><path d="M232,504c0,4.418,3.578,8,8,8s8-3.582,8-8v-25.914h-16V504z" fill="#5c546a"/></g><g transform="matrix(0.11708733439445496 0 0 0.11708733439445496 96 275.00000137211714)" id="L1_46"><rect x="32px" y="84px" width="448px" height="336px" fill="#00c37a"/><path d="M472.219,76.219h-432c-8.82,0-16,7.176-16,16v312c0,4.418,3.578,8,8,8s8-3.582,8-8v-312h432v312    c0,4.418,3.578,8,8,8s8-3.582,8-8v-312C488.219,83.395,481.039,76.219,472.219,76.219z" fill="#7e5c62"/><path d="M504.438,436.219H8c-4.418,0-8-3.582-8-8v-16c0-4.418,3.582-8,8-8h496.438c4.418,0,8,3.582,8,8v16    C512.438,432.637,508.856,436.219,504.438,436.219z" fill="#e6be8a"/><path d="M136.219,404.219v-16c0-4.418-3.582-8-8-8h-48c-4.418,0-8,3.582-8,8v16" fill="#ffffff"/><path d="M120.219,276.219c-4.422,0-8-3.582-8-8s3.578-8,8-8c13.234,0,24-10.766,24-24s-10.766-24-24-24     s-24,10.766-24,24c0,4.418-3.578,8-8,8s-8-3.582-8-8c0-22.055,17.945-40,40-40s40,17.945,40,40S142.273,276.219,120.219,276.219z     " fill="#ffffff"/><path d="M152.219,308.219h-64c-4.422,0-8-3.582-8-8v-8c0-17.645,14.352-32,32-32h8c4.422,0,8,3.582,8,8     s-3.578,8-8,8h-8c-8.82,0-16,7.176-16,16h56c4.422,0,8,3.582,8,8S156.641,308.219,152.219,308.219z" fill="#ffffff"/><path d="M264.219,276.219c-4.422,0-8-3.582-8-8s3.578-8,8-8c13.234,0,24-10.766,24-24s-10.766-24-24-24     s-24,10.766-24,24c0,4.418-3.578,8-8,8s-8-3.582-8-8c0-22.055,17.945-40,40-40s40,17.945,40,40S286.273,276.219,264.219,276.219z     " fill="#ffffff"/><path d="M296.219,308.219h-64c-4.422,0-8-3.582-8-8v-8c0-17.645,14.352-32,32-32h8c4.422,0,8,3.582,8,8     s-3.578,8-8,8h-8c-8.82,0-16,7.176-16,16h56c4.422,0,8,3.582,8,8S300.641,308.219,296.219,308.219z" fill="#ffffff"/><path d="M208.219,260.219h-32c-4.422,0-8-3.582-8-8s3.578-8,8-8h32c4.422,0,8,3.582,8,8     S212.641,260.219,208.219,260.219z" fill="#ffffff"/><path d="M352.219,276.219h-32c-4.422,0-8-3.582-8-8s3.578-8,8-8h32c4.422,0,8,3.582,8,8     S356.641,276.219,352.219,276.219z" fill="#ffffff"/><path d="M352.219,252.219h-32c-4.422,0-8-3.582-8-8s3.578-8,8-8h32c4.422,0,8,3.582,8,8     S356.641,252.219,352.219,252.219z" fill="#ffffff"/><path d="M192.219,276.219c-4.422,0-8-3.582-8-8v-32c0-4.418,3.578-8,8-8s8,3.582,8,8v32     C200.219,272.637,196.641,276.219,192.219,276.219z" fill="#ffffff"/><path d="M440.219,276.219h-64c-2.461,0-4.789-1.137-6.305-3.078s-2.055-4.473-1.453-6.863l16-64     c1.07-4.285,5.406-6.906,9.695-5.82c4.289,1.07,6.898,5.414,5.82,9.703l-13.508,54.059h53.75c4.422,0,8,3.582,8,8     S444.64,276.219,440.219,276.219z" fill="#ffffff"/><path d="M424.219,308.219c-4.422,0-8-3.582-8-8v-72c0-4.418,3.578-8,8-8s8,3.582,8,8v72     C432.219,304.637,428.64,308.219,424.219,308.219z" fill="#ffffff"/><path d="M0,420.219v8c0,4.418,3.582,8,8,8h496.438c4.418,0,8-3.582,8-8v-8H0z" fill="#c9a07c"/></g><g transform="matrix(0.1190476194024086 0 0 0.1190476194024086 27 97)" id="L1_47"><path d="M479.781,476h-375c-40.317,0-73-32.683-73-73v-14c0-40.317,32.683-73,73-73h375V476z" fill="#ffebb7"/><rect x="47px" y="332px" width="40px" height="128px" fill="#5c546a"/><path d="M441.781,292h-426V180h426c12.15,0,22,9.85,22,22v68C463.781,282.15,453.931,292,441.781,292z" fill="#ffebb7"/><rect x="71px" y="36px" width="408px" height="120px" fill="#ffebb7"/><path d="M480,492H112c-52.934,0-96-43.062-96-96s43.066-96,96-96h368c8.836,0,16,7.164,16,16    s-7.164,16-16,16H112c-35.289,0-64,28.711-64,64s28.711,64,64,64h368c8.836,0,16,7.164,16,16S488.836,492,480,492z" fill="#00c37a"/><path d="M432,300H8c-4.422,0-8-3.578-8-8s3.578-8,8-8h424c13.234,0,24-10.766,24-24v-48     c0-13.234-10.766-24-24-24H8c-4.422,0-8-3.578-8-8s3.578-8,8-8h424c22.055,0,40,17.945,40,40v48C472,282.055,454.055,300,432,300     z" fill="#009bca"/><path d="M479.781,76h-368c-4.418,0-8-3.582-8-8l0,0c0-4.418,3.582-8,8-8h368V76z" fill="#e6be94"/><path d="M479.781,108h-368c-4.418,0-8-3.582-8-8l0,0c0-4.418,3.582-8,8-8h368V108z" fill="#e6be94"/><path d="M479.781,140h-368c-4.418,0-8-3.582-8-8l0,0c0-4.418,3.582-8,8-8h368V140z" fill="#e6be94"/><path d="M15.781,204h416c4.418,0,8,3.582,8,8l0,0c0,4.418-3.582,8-8,8h-416    C15.781,220,15.781,204,15.781,204z" fill="#e6be94"/><path d="M15.781,236h416c4.418,0,8,3.582,8,8l0,0c0,4.418-3.582,8-8,8h-416    C15.781,252,15.781,236,15.781,236z" fill="#e6be94"/><path d="M15.781,268h416c4.418,0,8,3.582,8,8l0,0c0,4.418-3.582,8-8,8h-416    C15.781,284,15.781,268,15.781,268z" fill="#e6be94"/><path d="M488,172H104c-26.469,0-48-21.531-48-48V60c0-26.469,21.531-48,48-48h384c8.836,0,16,7.164,16,16    s-7.164,16-16,16H104c-8.824,0-16,7.176-16,16v64c0,8.82,7.176,16,16,16h384c8.836,0,16,7.164,16,16S496.836,172,488,172z" fill="#ff4f19"/><path d="M111.781,444c-4.422,0-8,3.578-8,8s3.578,8,8,8h368v-16H111.781z" fill="#e6be94"/><path d="M111.781,412c-4.422,0-8,3.578-8,8s3.578,8,8,8h368v-16H111.781z" fill="#e6be94"/><path d="M111.781,380c-4.422,0-8,3.578-8,8s3.578,8,8,8h368v-16H111.781z" fill="#e6be94"/><path d="M111.781,348c-4.422,0-8,3.578-8,8s3.578,8,8,8h368v-16H111.781z" fill="#e6be94"/></g><g transform="matrix(0.11779811978340149 0 0 0.11779811978340149 250 8)" id="L1_48"><path d="M398.453,210.645c-0.008-2.281-0.984-4.453-2.688-5.969c-1.711-1.516-4-2.223-6.25-1.961    l-271.781,32c-4.023,0.473-7.063,3.891-7.063,7.945v72c0,31.574,90.516,40,144,40s144-8.426,144-40c0,0,0-0.012,0-0.016    L398.453,210.645z" fill="#5d647f"/><path d="M398.453,234.66h-144v119.999c0.072,0,0.147,0.001,0.219,0.001c52.085,0,139.253-8,143.781-37.578    V234.66z" fill="#68748d"/><path d="M493.125,166.473L288.398,96.281c-21.75-7.461-45.703-7.461-67.453,0L16.227,166.473    C6.375,169.848,0,178.758,0,189.176c0,10.414,6.375,19.324,16.227,22.699l204.719,70.191c10.875,3.73,22.297,5.594,33.727,5.594    c11.43,0,22.852-1.863,33.727-5.594l204.727-70.191c9.852-3.375,16.219-12.285,16.219-22.699    C509.344,178.758,502.977,169.848,493.125,166.473z" fill="#74829c"/><path d="M406.453,362.66c-4.422,0-8-3.582-8-8V250.129c0-3.418-2.172-6.461-5.406-7.57L251.86,194.153     c-4.18-1.434-6.406-5.98-4.977-10.16c1.438-4.18,5.977-6.418,10.164-4.973l141.187,48.406     c9.703,3.328,16.219,12.449,16.219,22.703V354.66C414.453,359.078,410.875,362.66,406.453,362.66z" fill="#5c546a"/><path d="M414.453,418.66h-16c-4.418,0-8-3.582-8-8v-48c0-8.837,7.163-16,16-16l0,0c8.837,0,16,7.163,16,16    v48C422.453,415.078,418.871,418.66,414.453,418.66z" fill="#ffe671"/><path d="M254.672,322.66c58.042,0,116.569-8.797,143.962-25.802l-0.046-21.896    c-0.885,10.94-51.563,31.698-143.916,31.698c-93.172,0-144-21.141-144-32v22.174C138.048,313.854,196.603,322.66,254.672,322.66z" fill="#5d647f"/><g><path d="M398.453,296.96c0.057-0.035,0.125-0.067,0.181-0.102l-0.046-21.896     c-0.01,0.124-0.112,0.265-0.135,0.391V296.96z" fill="#5c546a"/><path d="M254.453,306.657c-93.028-0.034-143.781-21.146-143.781-31.997v22.174     c27.342,16.998,85.783,25.801,143.781,25.824V306.657z" fill="#5c546a"/></g><ellipse cx="254px" cy="186px" rx="32px" ry="16px" fill="#5d647f"/><path d="M390.453,362.66v48c0,4.418,3.582,8,8,8h8v-72C397.617,346.66,390.453,353.823,390.453,362.66z" fill="#ffcd00"/></g></defs><g fi:class="KUsePattern"><pattern id="pattern_L1_44" width="350" height="350" patternUnits="userSpaceOnUse"><use xlink:href="#L1_44" x="-350" y="-350"/><use xlink:href="#L1_44" x="0" y="-350"/><use xlink:href="#L1_44" x="350" y="-350"/><use xlink:href="#L1_44" x="-350" y="0"/><use xlink:href="#L1_44" x="0" y="0"/><use xlink:href="#L1_44" x="350" y="0"/><use xlink:href="#L1_44" x="-350" y="350"/><use xlink:href="#L1_44" x="0" y="350"/><use xlink:href="#L1_44" x="350" y="350"/></pattern><rect x="0" y="0" width="100%" height="100%" fill="url(#pattern_L1_44)"/></g><g fi:class="KUsePattern"><pattern id="pattern_L1_45" width="350" height="350" patternUnits="userSpaceOnUse"><use xlink:href="#L1_45" x="-350" y="-350"/><use xlink:href="#L1_45" x="0" y="-350"/><use xlink:href="#L1_45" x="350" y="-350"/><use xlink:href="#L1_45" x="-350" y="0"/><use xlink:href="#L1_45" x="0" y="0"/><use xlink:href="#L1_45" x="350" y="0"/><use xlink:href="#L1_45" x="-350" y="350"/><use xlink:href="#L1_45" x="0" y="350"/><use xlink:href="#L1_45" x="350" y="350"/></pattern><rect x="0" y="0" width="100%" height="100%" fill="url(#pattern_L1_45)"/></g><g fi:class="KUsePattern"><pattern id="pattern_L1_46" width="350" height="350" patternUnits="userSpaceOnUse"><use xlink:href="#L1_46" x="-350" y="-350"/><use xlink:href="#L1_46" x="0" y="-350"/><use xlink:href="#L1_46" x="350" y="-350"/><use xlink:href="#L1_46" x="-350" y="0"/><use xlink:href="#L1_46" x="0" y="0"/><use xlink:href="#L1_46" x="350" y="0"/><use xlink:href="#L1_46" x="-350" y="350"/><use xlink:href="#L1_46" x="0" y="350"/><use xlink:href="#L1_46" x="350" y="350"/></pattern><rect x="0" y="0" width="100%" height="100%" fill="url(#pattern_L1_46)"/></g><g fi:class="KUsePattern"><pattern id="pattern_L1_47" width="350" height="350" patternUnits="userSpaceOnUse"><use xlink:href="#L1_47" x="-350" y="-350"/><use xlink:href="#L1_47" x="0" y="-350"/><use xlink:href="#L1_47" x="350" y="-350"/><use xlink:href="#L1_47" x="-350" y="0"/><use xlink:href="#L1_47" x="0" y="0"/><use xlink:href="#L1_47" x="350" y="0"/><use xlink:href="#L1_47" x="-350" y="350"/><use xlink:href="#L1_47" x="0" y="350"/><use xlink:href="#L1_47" x="350" y="350"/></pattern><rect x="0" y="0" width="100%" height="100%" fill="url(#pattern_L1_47)"/></g><g fi:class="KUsePattern"><pattern id="pattern_L1_48" width="350" height="350" patternUnits="userSpaceOnUse"><use xlink:href="#L1_48" x="-350" y="-350"/><use xlink:href="#L1_48" x="0" y="-350"/><use xlink:href="#L1_48" x="350" y="-350"/><use xlink:href="#L1_48" x="-350" y="0"/><use xlink:href="#L1_48" x="0" y="0"/><use xlink:href="#L1_48" x="350" y="0"/><use xlink:href="#L1_48" x="-350" y="350"/><use xlink:href="#L1_48" x="0" y="350"/><use xlink:href="#L1_48" x="350" y="350"/></pattern><rect x="0" y="0" width="100%" height="100%" fill="url(#pattern_L1_48)"/></g></svg>