<?xml version="1.0" encoding="utf-8"?>
<!-- Generator: Adobe Illustrator 22.0.0, SVG Export Plug-In . SVG Version: 6.00 Build 0)  -->
<svg version="1.1" id="Layer_1" xmlns="http://www.w3.org/2000/svg" xmlns:xlink="http://www.w3.org/1999/xlink" x="0px" y="0px"
	 viewBox="0 0 238.1 155.9" style="enable-background:new 0 0 238.1 155.9;" xml:space="preserve">
<style type="text/css">
	.st0{fill:#7DB7AC;}
	.st1{fill:#3A9184;}
	.st2{display:none;}
	.st3{display:inline;fill:#53A587;}
	.st4{fill:#F4D889;}
	.st5{fill:#F7E8C4;}
	.st6{display:inline;fill:#29820C;}
	.st7{display:inline;fill:#53A538;}
</style>
<g id="Layer_4">
</g>
<g id="cercle">
	<path class="st0" d="M187.8,80.5c0,39.7-32.2,72-72,72c-8.6,0-16.9-1.5-24.6-4.3c-4.5-1.6-8.8-3.7-12.8-6.2
		c-13.9-8.5-24.7-21.5-30.3-37c-2.8-7.6-4.3-15.8-4.3-24.4c0-28.6,16.7-53.3,40.8-64.9c9.4-4.5,20-7.1,31.2-7.1
		c6.1,0,11.9,0.8,17.6,2.2c4.3,1.1,8.4,2.5,12.3,4.3C170.5,26.3,187.8,51.4,187.8,80.5z"/>
	<path class="st1" d="M162.6,80.6c0,25.8-21,46.8-46.8,46.8c-5.6,0-11-1-16-2.8c-2.9-1.1-5.7-2.4-8.3-4c-9-5.5-16-14-19.7-24.1
		c-1.8-5-2.7-10.4-2.7-15.9C69.1,62,79.9,46,95.6,38.4c6.1-2.9,13-4.6,20.3-4.6c4,0,7.7,0.5,11.4,1.4c2.8,0.7,5.5,1.7,8,2.8
		C151.4,45.4,162.6,61.7,162.6,80.6z"/>
	<g id="Layer_8" class="st2">
		<path class="st3" d="M131.5,18.7L86.9,125.2c-11.3-6.9-20-17.5-24.5-30c-2.2-6.2-3.5-12.8-3.5-19.8c0-23.2,13.5-43.2,33.1-52.6
			c7.6-3.7,16.2-5.7,25.3-5.7C122.2,17,127,17.6,131.5,18.7z"/>
	</g>
</g>
<g id="mangue">
	<path class="st4" d="M120.3,55.1c0.2-0.1,0.5-0.1,0.5-0.1c0.2-0.1,0.4-0.1,0.4-0.1c0.2-0.1,3.4-1.3,6-1.4
		c7.6-0.2,13.2,5.3,15.6,13.1c0.4,1.5,3.6,11.2-0.4,20.8c-2.7,6.3-7.8,10.8-12.7,14.5c-4.1,3.1-12.1,7.3-22.1,7.6
		c-5.4,0.1-9.1-1.3-10.5-1.8c-2.8-1.2-7.1-3-8.9-7.4c-0.2-0.6-2.1-5.2,0-8.5c1.2-1.9,1.6-6.4,0.9-9.6c-0.2-0.8-0.9-3.4-0.8-6
		c0.1-4.1-0.1-1.9,0-3.7c0.3-4.6,2.3-8.2,3-9.3c0.4-0.6,2.2-3.7,5.7-6.5c2.9-2.4,5.6-3.5,6.2-3.7c1.5-0.6,3.9-1.5,7.1-1.4
		c1.4,0,4.4-0.1,7.1,1.7C123,57,119.1,55.4,120.3,55.1z"/>
	<g id="relief">
		<path class="st5" d="M134.6,85.6c-3,8.8-10,14.7-17.1,15.6c2.9-2.4,5.6-5.8,7.8-10c1-1.9,1.9-4,2.7-6.2c0.8-2.3,1.4-4.6,1.8-6.9
			c0.3-2,0.6-5,0.6-5s-0.1-3-0.2-4c0-0.5-0.1-1-0.2-1.5c-0.4-2.8-1.2-6.2-2.4-8.2C135.1,63.7,138.2,75.3,134.6,85.6z"/>
	</g>
</g>
<g id="feuille" class="st2">
</g>
<g id="branche" class="st2">
	<path class="st6" d="M120.5,54.5c-0.2-2.8-1-2.4-1.6-6.8c-0.5-4-0.1-6.4,0-7.2c0.3-1.4,0.6-2.5,1.1-3.7c0.1-0.2,0.2-0.4,0.2-0.6
		c0.6-1.7,1.3-3.4,2.1-4.1c0.2-0.2,0.5-0.4,0.7-0.3c0.7,0,1.1,0.9,1.1,0.9c0.5,1.1-0.1,2.2-0.4,2.8c-1.6,3.3,0.1,4-1.6,11.8
		c-0.2,1-0.9,4.9-0.9,3.4c0.1-1.9,0.2-2.6,1.4,3.4c0.3,1.5,0.3,2.5,0.2,3.7c-0.1,1.6-0.3,1.8-0.4,3.5c-0.1,1.6-0.4,2.2-0.9,2.6
		c-0.4,0.4-1.4,0.3-2-0.2"/>
	<path class="st7" d="M122.7,33.3c0,2-1.5,4.3-1.8,5.2c-0.5,1.6-2.2,3.2-2,2.3c0.1-0.2,1.3-4.6,1.4-4.9c0.6-1.7,1.6-3.5,2.3-4.2
		C122.7,32.2,122.7,32.8,122.7,33.3z"/>
	<polygon class="st6" points="106.6,107.7 106.6,107.7 106.6,107.7 	"/>
</g>
</svg>
