<?xml version="1.0" encoding="UTF-8" standalone="no"?><!-- Generator: Gravit.io --><svg xmlns="http://www.w3.org/2000/svg" xmlns:xlink="http://www.w3.org/1999/xlink" style="isolation:isolate" viewBox="0 0 400 400" width="400pt" height="400pt"><defs><clipPath id="_clipPath_kSrBsUhOUQ6Hp7i6ic8gOSH5Pi70KT8M"><rect width="400" height="400"/></clipPath></defs><g clip-path="url(#_clipPath_kSrBsUhOUQ6Hp7i6ic8gOSH5Pi70KT8M)"><g><g><path d=" M 319.657 314.665 C 318.147 303.335 311.121 293.491 300.897 288.38 L 286.042 280.953 C 283.829 279.846 281.292 280.828 280.209 282.927 L 272.724 280.172 C 324.334 266.113 351.724 241.379 351.724 241.379 C 324.569 188.362 331.897 107.759 310.345 62.069 C 288.793 16.379 248.276 0 200 0 C 151.724 0 111.207 16.379 89.655 62.069 C 68.103 107.759 75.431 188.362 48.276 241.379 C 48.276 241.379 75.667 266.112 127.277 280.172 L 119.792 282.926 C 118.722 280.824 116.189 279.836 113.98 280.941 L 100.434 287.714 C 88.873 293.494 81.854 303.335 80.344 314.664 L 80.009 317.171 C 80.009 317.172 80.009 317.172 80.009 317.172 L 72.089 376.575 C 70.435 388.979 80.084 400 92.597 400 L 307.403 400 C 319.916 400 329.566 388.979 327.911 376.576 L 319.657 314.665 Z " fill="rgb(255,215,163)"/><g><path d=" M 310.345 62.069 C 288.793 16.379 248.276 0 200 0 C 151.724 0 111.207 16.379 89.655 62.069 C 68.103 107.759 75.431 188.362 48.276 241.379 C 48.276 241.379 101.724 289.655 200 289.655 C 298.276 289.655 351.724 241.379 351.724 241.379 C 324.569 188.362 331.897 107.759 310.345 62.069 Z " fill="rgb(70,70,70)"/></g><path d=" M 158.621 123.276 C 158.621 75 176.646 29.92 213.049 0.474 C 208.762 0.189 204.427 0 200 0 C 151.724 0 111.207 16.379 89.655 62.069 C 68.103 107.759 75.431 188.362 48.276 241.379 C 48.276 241.379 87.441 275.772 158.621 286.434 C 158.621 286.435 158.621 161.207 158.621 123.276 Z " fill="rgb(46,46,46)"/><g><path d=" M 319.991 317.173 C 318.3 304.491 309.726 293.787 297.718 289.369 L 250.811 272.11 C 245.179 270.233 241.38 264.962 241.38 259.025 L 241.38 213.793 L 158.622 213.793 L 158.622 259.024 C 158.622 264.961 154.822 270.232 149.191 272.109 L 102.284 289.368 C 90.276 293.786 81.702 304.49 80.01 317.172 L 72.09 376.576 C 70.436 388.979 80.085 400 92.597 400 L 307.404 400 C 319.917 400 329.566 388.979 327.912 376.576 L 319.991 317.173 Z " fill="rgb(200,120,85)"/><g opacity="0.37"><path d=" M 158.621 259.025 C 158.621 259.362 158.606 259.695 158.581 260.026 C 158.569 260.198 158.547 260.367 158.528 260.539 C 158.512 260.677 158.498 260.815 158.478 260.951 C 158.441 261.216 158.394 261.476 158.342 261.736 C 158.341 261.741 158.341 261.747 158.339 261.753 C 157.573 265.546 155.247 268.846 151.939 270.837 C 209.632 280.803 241.379 236.782 241.379 236.782 L 158.621 236.207 L 158.621 259.025 L 158.621 259.025 L 158.621 259.025 Z " fill="rgb(166,100,72)"/></g></g><path d=" M 296.552 137.931 L 296.552 124.138 C 296.552 105.094 281.113 89.655 262.069 89.655 L 137.931 89.655 C 118.887 89.655 103.448 105.094 103.448 124.138 L 103.448 137.931 C 92.022 137.931 82.759 147.195 82.759 158.621 C 82.759 170.047 92.022 179.31 103.448 179.31 L 103.448 186.207 C 103.448 202.911 113.492 217.978 128.912 224.403 L 173.473 242.971 C 181.878 246.473 190.894 248.276 199.999 248.276 L 199.999 248.276 C 209.104 248.276 218.119 246.472 226.524 242.971 L 271.088 224.403 C 286.508 217.978 296.552 202.912 296.552 186.207 L 296.552 179.31 C 307.978 179.31 317.241 170.047 317.241 158.621 C 317.241 147.194 307.978 137.931 296.552 137.931 Z " fill="rgb(200,120,85)"/><g opacity="0.5"><path d=" M 260.345 110.022 L 260.345 92.241 L 124.837 92.241 C 112.289 97.397 103.448 109.731 103.448 124.138 L 103.448 137.931 C 92.022 137.931 82.759 147.194 82.759 158.621 C 82.759 170.047 92.022 179.31 103.448 179.31 L 103.448 186.207 C 103.448 202.912 113.492 217.978 128.912 224.403 L 173.472 242.971 C 175.653 243.879 177.879 244.662 180.134 245.341 C 160.441 230.934 147.332 218.341 139.651 210.106 C 134.063 204.115 131.034 196.209 131.034 188.016 L 131.034 137.931 C 156 138 223.866 133.678 260.345 110.022 Z " fill="rgb(166,100,72)"/></g><g><path d=" M 151.724 165.517 L 151.724 165.517 C 147.931 165.517 144.828 162.414 144.828 158.621 L 144.828 151.724 C 144.828 147.931 147.931 144.828 151.724 144.828 L 151.724 144.828 C 155.517 144.828 158.621 147.931 158.621 151.724 L 158.621 158.621 C 158.621 162.414 155.517 165.517 151.724 165.517 Z " fill="rgb(98,63,51)"/></g><g><path d=" M 248.276 165.517 L 248.276 165.517 C 244.483 165.517 241.379 162.414 241.379 158.621 L 241.379 151.724 C 241.379 147.931 244.483 144.828 248.276 144.828 L 248.276 144.828 C 252.069 144.828 255.172 147.931 255.172 151.724 L 255.172 158.621 C 255.172 162.414 252.069 165.517 248.276 165.517 Z " fill="rgb(98,63,51)"/></g><g><g><path d=" M 200 213.982 C 187.739 213.982 176.27 210.965 168.534 205.702 C 165.386 203.56 164.567 199.27 166.713 196.122 C 168.851 192.977 173.145 192.158 176.293 194.3 C 181.715 197.987 190.578 200.19 200 200.19 C 209.422 200.19 218.285 197.987 223.707 194.3 C 226.862 192.152 231.146 192.973 233.287 196.122 C 235.432 199.27 234.614 203.56 231.466 205.702 C 223.731 210.965 212.261 213.982 200 213.982 Z " fill="rgb(187,102,102)"/></g></g><path d=" M 117.241 124.138 C 117.241 124.138 161.207 128.448 186.207 117.241 C 189.725 115.665 200 93.103 200 93.103 L 200 124.138 C 200 124.138 231.712 122.497 264.655 109.202 L 264.655 84.483 L 112.543 84.483 C 115.675 100.256 117.241 124.138 117.241 124.138 Z " fill="rgb(70,70,70)"/><g><path d=" M 300.897 288.38 L 286.042 280.953 C 283.525 279.694 280.588 281.135 279.849 283.851 C 270.289 318.99 238.166 344.83 199.999 344.83 C 161.822 344.83 129.693 318.977 120.141 283.824 C 119.407 281.122 116.484 279.689 113.981 280.941 L 100.434 287.714 C 88.874 293.494 81.855 303.335 80.345 314.664 L 72.09 376.575 C 70.436 388.978 80.085 399.999 92.597 399.999 L 307.404 399.999 C 319.917 399.999 329.566 388.978 327.912 376.575 L 319.657 314.664 C 318.147 303.336 311.121 293.491 300.897 288.38 Z " fill="rgb(255,100,115)"/></g><g><path d=" M 83.485 304.417 C 81.922 307.636 80.824 311.062 80.343 314.665 L 72.088 376.576 C 70.434 388.979 80.084 400 92.597 400 L 124.138 400 L 124.138 372.414 C 124.138 363.46 121.234 354.749 115.862 347.586 L 83.485 304.417 Z " fill="rgb(240,84,103)"/></g><g><path d=" M 316.515 304.417 C 318.078 307.636 319.176 311.062 319.657 314.665 L 327.912 376.576 C 329.566 388.979 319.916 400 307.403 400 L 275.862 400 L 275.862 372.414 C 275.862 363.46 278.766 354.749 284.138 347.586 L 316.515 304.417 Z " fill="rgb(240,84,103)"/></g><g><g><path d=" M 286.207 89.353 C 286.207 98.637 267.474 106.163 258.19 106.163 C 248.905 106.163 241.379 98.637 241.379 89.353 C 241.379 80.068 248.905 72.542 258.19 72.542 C 267.474 72.542 286.207 80.069 286.207 89.353 Z " fill="rgb(189,68,90)"/></g></g><g><g><path d=" M 286.207 89.353 C 286.207 80.068 304.94 72.542 314.224 72.542 C 323.509 72.542 331.034 80.068 331.034 89.353 C 331.034 98.637 323.509 106.163 314.224 106.163 C 304.94 106.163 286.207 98.637 286.207 89.353 Z " fill="rgb(189,68,90)"/></g></g><g><g><path d=" M 286.207 89.353 C 294.247 93.995 291.398 113.981 286.757 122.022 C 282.115 130.062 271.834 132.816 263.793 128.175 C 255.753 123.534 252.998 113.252 257.64 105.211 C 262.283 97.171 278.167 84.71 286.207 89.353 Z " fill="rgb(255,100,115)"/></g></g><g><g><path d=" M 286.207 89.353 C 278.166 84.71 281.016 64.724 285.658 56.684 C 290.3 48.643 300.581 45.889 308.622 50.53 C 316.662 55.172 319.416 65.453 314.775 73.494 C 310.132 81.534 294.247 93.995 286.207 89.353 Z " fill="rgb(255,100,115)"/></g></g><g><g><path d=" M 286.207 89.353 C 278.166 93.995 281.016 113.981 285.658 122.022 C 290.3 130.062 300.581 132.816 308.622 128.175 C 316.662 123.534 319.416 113.252 314.775 105.211 C 310.132 97.171 294.247 84.71 286.207 89.353 Z " fill="rgb(240,84,103)"/></g></g><g><g><path d=" M 286.207 89.353 C 294.247 84.71 291.398 64.724 286.757 56.684 C 282.115 48.643 271.834 45.889 263.793 50.53 C 255.753 55.172 252.998 65.453 257.64 73.494 C 262.283 81.534 278.167 93.995 286.207 89.353 Z " fill="rgb(240,84,103)"/></g></g><g><g><circle vector-effect="non-scaling-stroke" cx="286.2068965517241" cy="89.35258620689655" r="11.206896551724128" fill="rgb(255,255,255)"/></g></g><path d=" M 112.54 84.483 C 115.673 100.256 117.242 124.138 117.242 124.138 C 117.242 124.138 137.131 126.077 157.759 123.944 C 157.759 123.723 157.759 123.491 157.759 123.276 C 157.759 110.012 159.225 97.003 162.053 84.483 L 112.54 84.483 Z " fill="rgb(46,46,46)"/></g></g><path d="M 118.12 333 L 284.88 333 C 289.913 333 294 337.087 294 342.12 L 294 380.88 C 294 385.913 289.913 390 284.88 390 L 118.12 390 C 113.087 390 109 385.913 109 380.88 L 109 342.12 C 109 337.087 113.087 333 118.12 333 Z" style="stroke:none;fill:#DF8805;stroke-miterlimit:10;opacity:0.67;"/><text transform="matrix(1,0,0,1,164.248,374.81)" style="font-family:'Passion One';font-weight:700;font-size:36px;font-style:normal;fill:#ffffff;stroke:none;">BEPC</text></g></svg>